<svg width="941" height="277" viewBox="0 0 941 277" fill="none" xmlns="http://www.w3.org/2000/svg">
<g clip-path="url(#clip0_3042_4866)">
<path d="M733.875 124.916C731.903 109.004 726.781 92.0675 714.479 81.2341C711.671 78.771 708.563 76.6566 705.263 74.9564C679.843 61.8779 648.145 65.1911 624.633 80.9725C616.617 86.3565 609.651 93.2009 602.493 99.6748C602.193 99.9364 601.872 100.22 601.486 100.307C599.793 100.656 597.221 95.1409 596.428 93.9421C594.563 91.0648 592.634 88.2093 590.298 85.7026C586.483 81.6047 582.003 78.1171 577.117 75.436C576.838 75.2834 576.538 75.1308 576.238 74.9782C575.895 74.7602 574.331 74.0409 572.444 73.2126C565.243 70.0302 557.592 67.9594 549.769 67.2401C548.354 67.1093 546.897 67.0221 545.461 67.0003C538.774 66.6952 532.044 67.2183 525.421 68.5698C525.143 68.6134 524.843 68.657 524.564 68.7005C507.268 71.5778 493.379 81.1033 480.648 92.983C474.09 99.1299 465.903 107.435 456.301 107.478C445.799 107.522 437.89 98.9555 429.253 94.269C427.924 93.5497 426.338 93.092 424.881 93.5715C421.152 94.814 421.28 99.9582 421.173 103.162C420.851 114.432 421.387 125.766 421.387 137.058C421.387 143.139 421.387 148.043 421.387 154.147L352.931 220.302L339.686 233.076L332.699 239.724C327.191 244.672 320.911 249.947 315.467 252.802C295.085 263.527 269.108 258.186 265.079 228.781C264.136 221.959 263.386 215.027 263.3 208.161C263 179.563 263.664 150.943 262.7 122.366C261.864 97.3643 241.417 75.4796 218.42 72.8421C210.49 71.9266 210.083 72.2535 210.061 80.2314C210.061 121.342 209.89 162.452 210.19 203.562C210.254 212.869 211.155 222.329 213.126 231.419C216.663 247.854 225.193 261.499 240.903 268.279C269.13 280.442 296.328 277.76 321.425 259.385C327.405 255.004 332.592 249.467 339.45 243.299C342.258 251.211 344.701 258.404 346.973 264.943C348.966 270.654 351.303 270.611 357.775 270.807C366.841 270.742 375.329 271.134 384.052 270.916C392.925 271.025 393.075 269.434 393.032 263.003L392.903 191.399L492.008 95.7513C499.831 88.1657 511.962 85.2449 522.506 86.0514C535.366 87.0322 544.732 94.2472 548.333 107.042C550.733 115.543 550.262 124.655 550.412 133.417C551.14 176.882 550.755 219.735 550.626 262.895C550.605 271.81 558.878 270.807 565.265 270.763C575.466 270.698 585.668 270.654 595.87 270.589C603.35 270.545 605.622 268.998 605.622 261.39C605.622 224.204 605.708 187.017 605.558 149.831C605.536 142.638 605.686 135.423 605.386 128.23C605.086 120.753 603.715 112.71 608.408 106.258C611.966 101.375 616.982 98.04 621.975 94.8576C635.349 86.3347 654.081 81.7355 668.013 91.8059C671.185 94.0946 673.778 97.1463 675.578 100.656C680.829 110.988 681.129 122.148 681.172 133.287C681.322 176.402 681.322 219.496 681.172 262.611C681.151 268.627 682.865 270.96 689.081 270.742C701.169 270.306 713.278 270.633 725.388 270.611C734.625 270.611 735.247 270.589 735.247 261.369C735.247 238.503 735.461 215.616 735.29 192.728C735.118 170.342 736.64 147.15 733.875 124.873V124.916Z" fill="#243254"/>
<path d="M421.345 264.551C421.345 269.238 422.974 270.785 427.517 270.72C440.055 270.502 452.594 270.654 465.153 270.654C474.498 270.654 474.519 270.654 474.519 260.954C474.519 214.417 474.498 169.056 474.626 122.519L421.43 173.83C421.43 204.455 421.409 233.904 421.345 264.551Z" fill="#243254"/>
<path d="M817.205 190.419C820.677 187.062 825.242 185.449 829.915 184.729C832.015 184.402 834.137 184.272 836.194 184.25C837.159 184.25 838.123 184.25 839.088 184.25C846.375 184.381 853.641 184.359 860.928 184.206C868.708 184.054 876.509 183.988 884.268 183.269C891.448 182.615 898.692 181.438 905.551 179.127C907.329 178.517 909.065 177.82 910.801 177.078C911.702 176.686 912.602 176.294 913.481 175.858C914.274 175.487 915.324 175.138 916.01 174.572C918.689 173.111 921.282 171.433 923.683 169.558C926.083 167.684 928.333 165.613 930.348 163.302C932.063 161.362 933.606 159.248 934.935 157.025C944.644 140.807 942.072 118.966 931.613 103.25C921.132 87.5343 903.964 77.4638 886.047 72.1888C852.055 62.1838 812.876 69.0718 786.406 92.9837C758.908 117.833 747.871 158.354 753.786 195.279C756.958 215.05 764.824 234.471 778.541 248.836C791.079 261.98 807.989 270.328 825.607 274.165C862.214 282.164 904.007 270.285 925.74 237.872C927.926 234.602 935.063 225.6 931.355 221.545C928.976 218.93 924.84 221.589 922.311 224.052C905.636 240.291 882.339 250.732 859.47 247.572C840.845 244.999 823.142 232.03 816.284 214.025C814.29 208.794 812.576 202.821 813.647 197.198C814.14 194.625 815.319 192.228 817.184 190.397L817.205 190.419ZM807.753 182.702C805.503 169.754 804.646 156.567 805.16 143.445C805.674 130.345 807.732 116.917 814.44 105.735C820.099 96.2969 828.907 88.9075 839.024 84.8314C849.118 80.7553 860.435 79.9705 871.065 82.3247C879.06 84.1121 887.033 87.9702 891.534 94.9018C895.134 100.438 896.099 107.37 895.906 113.996C895.606 123.544 892.97 133.135 887.676 141.025C881.996 149.505 873.53 155.739 864.443 160.185L807.796 182.702H807.753Z" fill="#243254"/>
<path d="M339.643 88.7761C339.686 93.6588 339.75 98.5632 339.75 103.446V195.693C339.707 205.72 339.664 213.392 339.6 223.441L392.946 171.977C392.946 165.329 392.946 161.057 392.946 154.408C392.946 142.572 393.224 130.693 392.367 118.9C391.66 109.266 387.373 100.133 381.458 92.6779C375.392 85.0488 367.377 78.8147 358.332 75.3489C355.353 74.1936 352.267 73.2563 349.116 72.7768C347.016 72.4498 342.065 71.5125 340.393 73.3871C340.029 73.7794 339.857 74.3026 339.75 74.8257C339.278 76.9401 339.621 79.1198 339.621 81.2778C339.621 83.7845 339.621 86.2912 339.621 88.7979L339.643 88.7761Z" fill="#243254"/>
<path d="M140.555 135.686C159.373 129.604 176.776 117.638 187.15 100.548C197.523 83.4592 200.052 61.0295 191.436 42.9594C183.763 26.851 168.311 15.6907 151.722 9.74001C135.133 3.78929 117.322 2.48144 99.7689 1.67493C68.5844 0.258095 37.3142 0.258095 6.12973 1.67493C4.32939 1.76212 2.29329 1.9583 1.13593 3.35334C0.128596 4.5522 0.0857306 6.27421 0.0857306 7.84363L0 260.172C0 260.433 0 260.716 0 260.978C0 262.111 0 263.267 0 264.4C0 269.087 1.62888 270.634 6.1726 270.569C10.1805 270.504 14.6599 270.46 19.3108 270.46H39.0288C42.308 270.504 45.4372 270.504 48.3306 270.504C57.6538 270.504 57.6752 270.504 57.6752 260.804C57.6752 256.553 57.5895 252.739 57.4395 249.273C57.3537 224.816 57.2894 200.185 57.3323 175.684L57.2894 159.925C63.0548 154.628 69.6989 150.443 77.0289 147.784C79.065 147.042 81.3154 146.432 83.373 147.151C85.8806 148.023 87.338 150.617 88.5811 152.993C102.405 179.804 114.772 207.378 125.638 235.562C129.217 244.87 132.818 254.526 139.676 261.676C147.006 269.326 157.444 273.315 167.882 274.558C178.32 275.822 188.886 274.58 199.302 273.141C201.531 272.836 204.124 272.269 205.089 270.198C205.989 268.28 205.046 266.057 204.103 264.16C182.928 221.35 161.731 178.518 140.555 135.708V135.686ZM122.187 110.706C117.494 114.303 117.344 114.368 107.442 120.123L57.1394 146.912C57.1394 146.912 57.1823 133.79 57.2466 129.299C57.5038 110.096 57.3323 90.9139 57.3323 71.7103C57.3323 52.9863 57.2037 15.5381 57.2037 15.451C57.2037 15.0586 76.6431 15.015 78.4006 15.0368C91.4102 15.2984 105.684 15.2548 117.279 21.9902C122.959 25.2816 128.36 29.6847 132.218 35.0905C132.947 36.0932 133.611 37.1613 134.233 38.2293C136.655 42.5452 138.198 47.3189 139.205 52.1579C140.77 59.6781 141.477 67.1546 141.241 74.544C140.791 88.7995 133.097 102.009 122.209 110.684L122.187 110.706Z" fill="#243254"/>
</g>
<defs>
<clipPath id="clip0_3042_4866">
<rect width="941" height="276" fill="white" transform="translate(0 0.605469)"/>
</clipPath>
</defs>
</svg>
